#SPC
{
	#author "Koji Kondo"
	#title "Special World"
	#game "Super Mario World"
}
#option smwvtable

"INTRO_LOOP=8"	; イントロのループ回数、デフォルト＝8

#0
$F0 @12 h0
y12 t41
[
	q6c o3
	c8 g8 g16 c16^16 c8 g8 g16 g16^16 c16 c16
	c8 g8 g16 c16^16 c8 g8 g16 g16^16 c16 c16
	c8 g8 g16 c16^16 c8 g8 g16 g16^16 c16 c16
	c8 g8 g16 c16^16 c8 g8 g16 g16^16 c16 c16
	c8 g8 g16 c16^16 c8 g8 g16 g16^16 c16 c16
	g8 g8. g8 g16 c4 g16 g8 c16
]INTRO_LOOP

o3
(1)[@12 h0 y12 q6c c8 g8 g16 c16^16 c8 g8 g16 g16^16 c16 c16]2

@4 y10
q6b o4 a16 a16 r16 a16 r16 a16 a16 r16		; ﾃﾚｯﾃｯﾃﾚｯﾃｰﾝ
> d8 r4.

/



<<< (2)[@14 q6d y10 c8. c16 e8. e16 f8. f16 f+16^16 g16^16]4

(1)12

(2)4
(1)17







#1
@3 y10
q6c o5
[
	c16 r16 e16 < b16 r16 > e16 r16 < a16 r16 > e16 r16 < b16 r16 b16 > c16 d16
	c16 r16 e16 < b16 r16 > e16 r16 < a16 r16 > e16 r16 < b16 r16 b16 > c16 c+16
	d16 r16 f16 c+16 r16 f16 r16 c16 r16 f16 r16 < b16 r16 b16 > c16 c+16
	d16 r16 f16 c+16 r16 f16 r16 c16 r16 f16 r16 < b16 r16 b16 > c16 d16
	c16 r16 e16 < b16 r16 > e16 r16 < a16 r16 > e16 r16 < b16 r16 b16 > c16 d16
	c16 r16 c16 r16 r16 c16 r16 c16 c16 r4..
]INTRO_LOOP


@3 y10 q6c
c16 r16 e16 < b16 r16 > e16 r16 <
a16 r16 > e16 r16 < b16 r16 b16 >c16 d16
c16 r16 e16 < b16 r16 > e16 r16 <
a16 r16 > e16 r16 < b16 r16 b16 > c16 c+16

@14
q6d
o2 d16 d16 r16 d16 r16 d16 e16 f16 g8 r8 g8 r8

/


(3)[
	@3 y20
	q69 o5
	c16 r16 e16 < b16 r16 > e16 r16 <
	a16 r16 > e16 r16 < b16 r16 b16 > c16 d16
]4

[
	@7 y10
	q6b o5
	r8 e16 d+16 d16 < b16 r16 > c16 r16 < e16 f16 g16 r16 c16 e16 f16
	r8 > e16 d+16 d16 < b16 r16 > c16 r16 f16 r16 f16 f8 r8
	r8 e16 d+16 d16 < b16 r16 > c16 r16 < e16 f16 g16 r16 c16 e16 f16
	r8 g+16 r16 r16 f16 r16 r16 e4. r8
]2


(4)[
	@14 y10
	q6d o1
	g+8. > d+8. g+8 g8. c8. < g8
]3
>d16 d16 r16 d16 r16 d16 e16 f16 g8 r8 g8 r8

(3)4

(5)[
	@14 y10
	q6d o2
	c8. f+16 g8 > c8 < f8. f16 > c16 c16 < f16 r16
	d8. f16 g8 b8 g8. g16 > c16 c16 < g16 r16
	c8. f+16 g8 > c8 < f8. f16 > c16 c16 < f16 r16
	g8. g16 g12 a12 b12 > c8 < g8 c4
]2


(4)3
d16 d16 r16 d16 r16 d16 e16 f16 g8 r8 g8 r8

(5)1





#2
@3 y10
q6c o4
[
g16 r16 g16 g16 r16 g16 r16 g16 r16 g16 r16 g16 r16 g16 g16 g16
g16 r16 g16 g16 r16 g16 r16 g16 r16 g16 r16 g16 r16 g16 g16 g16
a16 r16 a16 a16 r16 a16 r16 a16 r16 a16 r16 a16 r16 a16 a16 a16
a16 r16 a16 a16 r16 a16 r16 a16 r16 a16 r16 a16 r16 a16 a16 a16
e16 r16 e16 e16 r16 e16 r16 e16 r16 e16 r16 e16 r16 e16 e16 e16
e16 r16 e16 r16 r16 f16 r16 f16 e16 r4..
]INTRO_LOOP

[g16 r16 g16 g16 r16 g16 r16 g16 r16 g16 r16 g16 r16 g16 g16 g16]2

@6 y10
q6b o4
> e16 e16 r16 e16 r16 c16 e16 r16 g8 r8
@15 h0
<< b8 r8 

/


(6)[
	@4 y10
	q6c o5
	c16 r16 r16 < g16 r16 r16 e16 r16 r16 a16 r16 b8 a+16 a16 r16
	g12 > e12 g12 a16 r16 f16 g16 r16 e16 r16 c16 d16 < b8.
]2

[
@7 y10
q6b o5
r8 g16 f+16 f16 d+16 r16 e16 r16 < g+16 a16 > c16 r16 < a16 > c16 d16
r8 g16 f+16 f16 d+16 r16 e16 r16 > c16 r16 c16 c8 r8 <
r8 g16 f+16 f16 d+16 r16 e16 r16 < g+16 a16 > c16 r16 < a16 > c16 d16
r8 d+16 r16 r16 d16 r16 r16 c4. r8
]2


(7)[
	@6 y12
	q6b o5
	c16 c16 r16 c16 r16 c16 d16 r16 e16 c16 r16 < a16 g4 >
	c16 c16 r16 c16 r16 c16 d16 e2^16
	c16 c16 r16 c16 r16 c16 d16 r16 e16 c16 r16 < a16 g4 >
	e16 e16 r16 e16 r16 c16 e16 r16 g8 r8
	@15 h0
	<< b8 r8 
]1

(6)2

(8)[
@7 y10
q6b o5
e16 c16 r16 < g8. g+8 a16 > f16 r16 f16 < a4
b12 > a12 a12 a12 g12 f12 e16 c16 r16 < a16 g4 >
e16 c16 r16 < g8. g+8 a16 > f16 r16 f16 < a4
b16 > f16 r16 f16 f12 e12 d12 c4 r4
]2

(7)1
(8)1





#3
@14 q6d o2
[
c8. g16 g8. > c16 c8. < g16 g16^16 g16^16
c8. g16 g8. > c16^16 c16^16 c16 < g16^16 g16^16
d8. a16 a8. > d16 d8. < a16 a16^16 a16^16
d8. a16 a8. > d16^16 d16^16 d16 < a16^16 a16^16
c8. g16 g8. > c16 c8. < g16 g16^16 g16^16
c16^16 c8. c+16^16 c+16 c8. g16 g16^16 g16^16
]INTRO_LOOP


@14
q6d
c8. g16 g8. > c16 c8. < g16 g16^16 g16^16
c8. g16 g8. > c16^16 c16^16 c16 < g16^16 g16^16
@6 y10
q6b
>> f+16 f+16 r16 f+16 r16 f+16 f+16 r16 b8 r8
@15 h0
< b8 r8 

/


(9)[
	@4 y10
	q6c o4
	e16 r16 r16 c16 r16 r16 < g16 r16 r16 > c16 r16 d8 c+16 c16 r16
	c12 g12 b12 > c16 r16 < a16 b16 r16 g16 r16 e16 f16 d8.
]2


@14
q6d o2
(10)[c8. c16 e8. e16 f8. f16 a8 > c8]3
(11)[< g+8. g+16 a+8. a+16 > c16 < a16 a+16 b16 > c4]1
(10)3 (11)1

(12)[
	@6 y8
	q6b o4
	g+16 g+16 r16 g+16 r16 g+16 a+16 r16 g16 e16 r16 e16 c4 
	g+16 g+16 r16 g+16 r16 g+16 a+16 g2^16
	g+16 g+16 r16 g+16 r16 g+16 a+16 r16 g16 e16 r16 e16 c4
	y10
	f+16 f+16 r16 f+16 r16 f+16 f+16 r16 b8 r8
	@15 h0
	< b8 r8
]1

(9)2


(13)[
	@7 y10
	q6b o5
	c16 < a8 e8. e8 f16 > c16 r16 c16 < f4
	g12 > f12 f12 f12 e12 d12 c16 < a16 r16 f16 e4
	> c16 < a8 e8. e8 f16 > c16 r16 c16 < f4
	g16 > d16 r16 d16 d12 c12 < b12 g16 e16 r16 e16 c4
]2

(12)1
(13)1



#4
y10 q6c
[
@27c16 @27c16 r16 @24c16 @24c16 @24c16 r16 @27c16 r16 @27c16 @27c16 r16 @24c16 @24c16 r16 @27c16
@27c16 @27c16 r16 @24c16 @24c16 @24c16 r16 @27c16 r16 @27c16 @27c16 r16 @24c16 @24c16 r16 @27c16
@27c16 @27c16 r16 @24c16 @24c16 @24c16 r16 @27c16 r16 @27c16 @27c16 r16 @24c16 @24c16 r16 @27c16
@27c16 @27c16 r16 @24c16 @24c16 @24c16 r16 @27c16 r16 @27c16 @27c16 r16 @24c16 @24c16 r16 @27c16
@27c16 @27c16 r16 @24c16 @24c16 @24c16 r16 @27c16 r16 @27c16 @27c16 r16 @24c16 @24c16 r16 @27c16
@24c16 r16 @24c16 r16 r16 @24c16 r16 @24c16 @24c16 r16 r16 r16 @24c16 @24c16 r16 @27c16
]INTRO_LOOP

[@27c16 @27c16 r16 @24c16 @24c16 @24c16 r16 @27c16 r16 @27c16 @27c16 r16 @24c16 @24c16 r16 @27c16]3

/


*36





#5
@12 h0 y5
q7c o4
[
	f8 f8 > c8. < f16 > c8. < f16 f8 f8
	f8 f8 > c8. < f16 > c8. < f16 f8 f8
	f8 f8 > c8. < f16 > c8. < f16 f8 f8
	f8 f8 > c8. < f16 > c8. < f16 f8 f8
	f8 f8 > c8. < f16 > c8. < f16 f8 f8
	> c8 c8. c8 c16 c8. < c16 c8 c8
]INTRO_LOOP


[f8 f8 > c8. < f16 > c8. < f16 f8 f8]3

/

*36






#6
@2 h0 y0
$DF
q15 o4
[
	g16 g16^16 > d16 < g16 g16^16 > d16 r16 d16 r16 d16 < g16 g16^16 > d16 <
	g16 g16^16 > d16 < g16 g16^16 > d16 r16 d16 r16 d16 < g16 g16^16 > d16 <
	g16 g16^16 > d16 < g16 g16^16 > d16 r16 d16 r16 d16 < g16 g16^16 > d16 <
	g16 g16^16 > d16 < g16 g16^16 > d16 r16 d16 r16 d16 < g16 g16^16 > d16 <
	g16 g16^16 > d16 < g16 g16^16 > d16 r16 d16 r16 d16 < g16 g16^16 > d16
	d16 r16 d16 r16 r16 d16 r16 d16 d16 r16 r16 r16 d16 d16^16 < g16
]INTRO_LOOP


[g16 g16 ^16 > d16 < g16 g16 ^16 > d16 r16 d16 r16 d16 < g16 g16 ^16 > d16]2

(1)1

/

(1)4

(14)[r2]16

(15)[
	@3 y20
	q69 o5
	g+16 r16 > c16 < d+16 r16 g+16 r16
	g16 r16 > c16 r16 < e16 g16 r16 > c16 r16 <
]3

(16)[
	@4
	y10
	q6b
	< a16 a16 r16 a16 r16 a16 a16 r16 > d8 r8 r8 r8
]1

(1)4

(14)16

(15)3
(16)1
(14)8







#7
y20 q7c
[
@23c16^16 @23c16 @23c16 @23c16^16 @23c16 @23c16 @23c16^16 @23c16 @23c16 @23c16^16 @23c16 @23c16
@23c16^16 @23c16 @23c16 @23c16^16 @23c16 @23c16 @23c16^16 @23c16 @23c16 @23c16^16 @23c16 @23c16
@23c16^16 @23c16 @23c16 @23c16^16 @23c16 @23c16 @23c16^16 @23c16 @23c16 @23c16^16 @23c16 @23c16
@23c16^16 @23c16 @23c16 @23c16^16 @23c16 @23c16 @23c16^16 @23c16 @23c16 @23c16^16 @23c16 @23c16
@23c16^16 @23c16 @23c16 @23c16^16 @23c16 @23c16 @23c16^16 @23c16 @23c16 @23c16^16 @23c16 @23c16
@23c16 @23c16 @23c16^16 @23c16 @23c16^16 @23c16 @23c4 @23c16^16 @23c16 @23c16
]INTRO_LOOP


[@23c16^16 @23c16 @23c16]12

/


*127
*17                

#amk 2
                                                                                                                                                                                                                                                                                                                                                                                                                                                                                                                                                                                                                                                                                                                                                                                                                                                                                                                                                                                                                                                                                                                